PathFileType        4      (X/Y/Z)      C:\Users\pc\Desktop\IMUTRC\Sujet_07\Sujet_07_velo_100.trc         
DataRate	CameraRate	NumFrames	NumMarkers	Units	OrigDataRate	OrigDataStartFrame	OrigNumFrames
60.0	60.0	4	64	mm	60.0	700	933
Frame#	Time	pHipOrigin			pRightASI			pLeftASI			pRightCSI			pLeftCSI			pRightIschialTub			pLeftIschialTub			pSacrum			pL5SpinalProcess			pL3SpinalProcess			pT12SpinalProcess			pIJ			pT4SpinalProcess			pT8SpinalProcess			pPX			pC7SpinalProcess			pTopOfHead			pRightAuricularis			pLeftAuricularis			pBackOfHead			pRightAcromion			pLeftAcromion			pRightArmLatEpicondyle			pRightArmMedEpicondyle			pLeftArmLatEpicondyle			pLeftArmMedEpicondyle			pRightUlnarStyloid			pRightRadialStyloid			pRightOlecranon			pLeftUlnarStyloid			pLeftRadialStyloid			pLeftOlecranon			pRightTopOfHand			pRightPinky			pRightBallHand			pLeftTopOfHand			pLeftPinky			pLeftBallHand			pRightGreaterTrochanter			pRightKneeLatEpicondyle			pRightKneeMedEpicondyle			pRightPatella			pLeftGreaterTrochanter			pLeftKneeLatEpicondyle			pLeftKneeMedEpicondyle			pLeftPatella			pRightTibialTub			pRightLatMalleolus			pRightMedMalleolus			pLeftTibialTub			pLeftLatMalleolus			pLeftMedMalleolus			pRightHeelFoot			pRightFirstMetatarsal			pRightFifthMetatarsal			pRightPivotFoot			pRightHeelCenter			pRightToe			pLeftHeelFoot			pLeftFirstMetatarsal			pLeftFifthMetatarsal			pLeftPivotFoot			pLeftHeelCenter			pLeftToe			
		X1	Y1	Z1	X2	Y2	Z2	X3	Y3	Z3	X4	Y4	Z4	X5	Y5	Z5	X6	Y6	Z6	X7	Y7	Z7	X8	Y8	Z8	X9	Y9	Z9	X10	Y10	Z10	X11	Y11	Z11	X12	Y12	Z12	X13	Y13	Z13	X14	Y14	Z14	X15	Y15	Z15	X16	Y16	Z16	X17	Y17	Z17	X18	Y18	Z18	X19	Y19	Z19	X20	Y20	Z20	X21	Y21	Z21	X22	Y22	Z22	X23	Y23	Z23	X24	Y24	Z24	X25	Y25	Z25	X26	Y26	Z26	X27	Y27	Z27	X28	Y28	Z28	X29	Y29	Z29	X30	Y30	Z30	X31	Y31	Z31	X32	Y32	Z32	X33	Y33	Z33	X34	Y34	Z34	X35	Y35	Z35	X36	Y36	Z36	X37	Y37	Z37	X38	Y38	Z38	X39	Y39	Z39	X40	Y40	Z40	X41	Y41	Z41	X42	Y42	Z42	X43	Y43	Z43	X44	Y44	Z44	X45	Y45	Z45	X46	Y46	Z46	X47	Y47	Z47	X48	Y48	Z48	X49	Y49	Z49	X50	Y50	Z50	X51	Y51	Z51	X52	Y52	Z52	X53	Y53	Z53	X54	Y54	Z54	X55	Y55	Z55	X56	Y56	Z56	X57	Y57	Z57	X58	Y58	Z58	X59	Y59	Z59	X60	Y60	Z60	X61	Y61	Z61	X62	Y62	Z62	X63	Y63	Z63	X64	Y64	Z64	
700	11.65	0.0	1249.97763	7.653905517926474E-14	120.80602953022147	1323.7154	126.25351899299035	82.88762582602409	1320.07678	-155.44679924943196	98.99891835730685	1405.6215	102.68778351078139	67.83057791899417	1402.65119	-129.07018726245747	-67.42277094756653	1216.11618	68.51224486826416	-83.02550616672288	1214.63103	-47.334584995112756	-57.08206768964435	1295.94307	7.086681439549918	18.77325836750035	1381.56204	-4.595397316128089	107.15712595333906	1466.95825	-18.819086544240765	191.86471357557778	1541.0673	-32.76441209255079	456.4518955532442	1501.63653	-66.58659430934136	371.69014347843	1634.55758	-61.16133317720663	285.2263079953357	1600.99316	-47.88699710321049	340.35440435989557	1450.84435	-48.47048093118129	428.06942198213426	1654.90415	-67.62482803969822	701.9149533737859	1629.73083	-89.41358183573693	604.0264001535684	1611.09219	-13.281654178910017	595.9134023179458	1632.55262	-156.35852972591542	596.0905663593004	1677.924	-76.17018684681584	443.67719625460944	1585.39907	117.42133392730847	401.7682290467078	1613.31991	-248.55540557586804	467.6193580450515	1303.14605	102.0909532632285	436.7857714453693	1302.1807	45.446571833453014	407.4377448461063	1313.61637	-262.0881749947406	371.2254743421587	1306.78467	-209.1686826244756	561.2656059747053	1064.40797	47.861393910876195	609.0464936812011	1089.80406	46.637288772482385	427.7657592991478	1293.93811	77.109331155597	462.8477379913339	1057.50202	-239.1004583693181	511.9688194357708	1074.95255	-253.78450715381175	364.93619834134074	1305.89358	-230.20607704823527	743.7962324217984	1024.01186	154.53167496713547	667.7441780792205	1004.8534	100.76229710846988	617.6306628432128	1046.36338	54.937431643112326	606.4622354219273	994.90289	-388.639964622576	549.7193667856018	985.02663	-312.9327331772536	515.881907054427	1033.44257	-259.67107372379286	31.570099517371858	1226.66076	174.62634363590638	309.10823138145827	880.17495	163.3725582095579	313.9201723547651	878.24425	77.66163196076798	347.00495791992654	911.73441	118.97116240438697	-10.135658274354427	1225.54689	-176.9993449006622	303.4985477881436	916.26413	-233.69414479243568	328.20354857646316	916.70967	-151.43472135883428	346.3943657226846	953.17014	-198.98178088728497	335.98855979732286	824.259	127.35902366914293	32.06129424365952	547.50105	178.08250941356619	36.485575410801594	538.51588	113.24110964510598	366.1812882907865	878.02148	-201.62001610066878	229.98557546624286	490.09995	-251.6137417154991	238.9450174146274	484.15934	-186.93379037756495	-50.315982470487995	507.55047	138.2390380716303	77.39906234452465	397.64927	119.45623156109225	68.5742095736986	401.95621	198.30580492947797	89.97300300152747	384.95123	160.49942749180738	-16.97709919971618	484.60489	143.16779837904542	157.78842851124753	323.16893	171.35674497206972	185.52152424985115	409.1592	-217.52062589836385	353.87715228996854	390.44629	-212.23936740401476	338.94248647283337	398.09482	-289.8868274146744	368.5904778640189	392.07996	-254.50581484657246	225.50183885548182	410.1988	-225.13478209790418	458.5861633520004	381.6839	-272.8578945737456	
701	11.667	0.0	1249.97763	7.653905517926474E-14	118.8017848137081	1324.755	127.49723267279299	84.6710510731107	1319.63123	-154.67438238888704	97.07160677536143	1406.51259	103.20420509272681	69.0179789752535	1402.27991	-128.89910622085958	-68.27601700382586	1216.19044	67.7623903890631	-82.30282407375282	1214.11123	-48.28926709785712	-57.28955612724753	1295.79455	6.109441955461706	18.42453940909823	1381.6363	-4.88247836261312	106.805733860369	1467.18102	-18.507497585838653	191.51066066854784	1541.36433	-31.854134469007494	456.3371357954436	1502.00782	-63.56602457816654	371.5236811019733	1634.92886	-58.942311883634986	284.9610740467079	1601.29019	-46.239478428295	340.1236359369538	1451.21564	-46.28859829786369	427.9745551313637	1655.27544	-64.93575383420948	701.8373186159854	1629.87935	-86.45731449079314	604.0773838284839	1611.16644	-10.251140494220252	595.8258149463762	1632.99817	-153.23652394825555	596.1315924204469	1678.14677	-72.97392606915601	442.3206683475795	1585.6961	120.06794918416941	402.4576858610784	1613.31991	-246.18519980798257	466.9736040866494	1303.44308	102.3183519283697	436.2785885334522	1302.99754	45.58247840562412	407.82821746964953	1313.83914	-260.83379341768233	371.744569058672	1306.85893	-207.84004104741732	561.1396620163032	1065.29906	47.18845524573502	608.9205360625449	1090.76941	45.96435376759519	427.1942653407457	1294.45792	77.20810772776815	463.09768037756487	1057.57628	-239.38487128123515	512.1544594357708	1075.10106	-254.10604506572886	365.41815439760006	1306.0421	-228.813129424692	743.8559198031423	1024.90295	153.5371933900772	667.7667354605643	1005.74449	99.83212657789662	617.5789652245566	1047.32873	54.1358745452551	606.5563969892112	995.27418	-389.1000772412321	549.9149557391167	985.32366	-313.42002318214077	516.067552054427	1033.59108	-259.99262029596406	31.891646089542974	1228.73997	174.81198863590637	329.21065262936287	899.03637	164.346283253035	333.89398016995364	897.03142	78.56110200424504	365.1283649672296	932.52653	119.65976059220633	-9.611238269467265	1223.91323	-176.86806699363228	282.698482322786	893.39279	-226.92485460567758	306.69342310621846	893.17002	-144.47517116718905	327.7218294579286	927.69979	-192.18459937055522	353.5477573654248	843.04616	128.5793213410505	40.34063262312414	577.12981	180.3759746872785	44.359163264580104	567.84762	115.64329544450439	346.5885304489723	856.56104	-195.01114405825297	225.15102102344184	464.40683	-249.77472778860982	233.84329215287934	458.16919	-185.07754301795967	-43.0881485751116	537.92182	140.8686225361699	82.7565989047315	426.01566	122.20642603540614	74.32755270607659	430.84241	201.11302231082183	95.29340956173435	413.31762	163.31393301260633	-10.117894490279902	514.53069	145.84178732278608	162.27015297359716	350.3472	174.28725049775576	179.4253087507908	383.83737	-215.72407092010243	347.4586849352504	362.97099	-208.39949583892073	333.5012722624575	370.17397	-286.2544479474377	362.723606560673	364.0106	-250.4332156677095	219.57865492859253	384.20865	-222.89534659395667	452.7882181000266	352.35216	-267.7165588178243	
702	11.683	0.0	1249.97763	7.653905517926474E-14	116.48328166447871	1325.72035	128.98823792476676	87.00607237156949	1319.03717	-153.6692379145731	94.93145548667695	1407.32942	103.94073586061238	70.628372650169	1401.83436	-128.56956988600078	-69.22075515305525	1216.33896	66.873964863377	-81.36732459455175	1213.59143	-49.46405972628758	-57.55141531807482	1295.64604	4.929315378403428	18.17724783692711	1381.6363	-5.196736795329148	106.61013990685402	1467.32953	-18.020198920697457	191.33957962694996	1541.51284	-30.66673341274816	456.4868823822762	1502.15633	-59.96401327482058	371.59455768391877	1635.07738	-56.2432937246313	284.9431316702512	1601.51296	-44.277701320663496	340.1302051326682	1451.43841	-43.62669647860593	428.1541558992492	1655.42395	-61.83097148926565	702.024195202818	1629.65658	-82.9196142339322	604.3285751220556	1610.94367	-6.676296577105249	595.9384365332088	1633.14668	-149.5702102586786	596.4371421467345	1678.14677	-69.196213719325	441.13716335246664	1585.6961	123.15743996671641	403.4859140200821	1613.02288	-243.36218322114993	466.29071646799326	1303.66586	102.61004797974188	435.7985780077661	1303.66586	45.81982102428028	408.37448457239395	1313.76488	-259.40371579413903	372.41944959413246	1306.63616	-206.33570842387402	561.0037604441321	1065.96738	46.68126367356388	608.7103831506279	1091.58624	45.58578928839419	426.6128187685746	1294.8292	77.47262273265528	463.32774351701994	1057.3535	-239.3377923277202	512.3845225752259	1074.95255	-254.05896611221385	366.02873754682946	1305.96784	-227.34593046140273	743.7571568912252	1025.49701	152.96569577142108	667.6036615021621	1006.48707	99.22349895924043	617.4059423126395	1047.99705	53.692999019568965	606.8607064684123	995.27418	-389.18161672043334	550.1821488785719	985.17515	-313.4372552751109	516.3347365336281	1033.44257	-260.0098573889341	31.374505563856886	1230.74492	175.11364230104758	347.98176782589525	919.38294	166.43777801791265	353.0609019386572	917.5265	80.70961967615264	381.9377080561304	954.95232	121.73330432037322	-8.718197738894034	1222.57659	-176.7811985658034	259.1079066054547	871.04127	-220.2232588834591	281.88558215157474	869.77889	-137.4474102076582	306.11026294119887	902.22945	-185.197868132425	370.7800830729819	863.68977	130.81133768298645	51.23017020319034	605.19918	181.8613223276732	55.41444927736233	595.54569	117.13857837816006	324.08392840166925	834.65506	-188.1112899082056	215.26643893754886	439.085	-245.27790940425805	223.95870140673233	432.7731	-180.5807296336079	-32.14425256232938	566.36247	142.55683860928062	93.21515544319982	453.63948	125.32933473694735	84.63030976534384	459.2088	204.06024362613203	105.61340371397165	441.31272	166.5283388071176	0.7417975689873444	542.89708	147.82436892158293	172.2089045120655	378.04528	178.31048786932533	168.07351904135453	359.77791	-210.61667438652125	335.6414486585302	335.49569	-202.18890220259524	322.19122255790836	342.17887	-280.1797472230292	351.0721223769228	335.79272	-244.21267307786897	208.28123231212635	359.25811	-217.58507662765945	441.03262839547756	322.05507	-260.87016017661165	
703	11.7	0.0	1249.97763	7.653905517926474E-14	114.19195956173434	1326.61144	130.58068422322557	89.43257710274432	1318.44311	-152.52552739377415	92.8556289047315	1408.072	104.71439296824389	72.53312685077057	1401.2403	-128.15582093737297	-70.32128778148572	1216.56173	65.80984329120588	-80.4689551153507	1213.22014	-50.57454130823301	-57.71182480216302	1295.57178	3.7220127548601254	18.05858335772605	1381.71056	-5.436743888299213	106.5431643860551	1467.40379	-17.458653915810313	191.42573777129223	1541.5871	-29.330803696234785	456.8023810620788	1502.15633	-56.352053017959655	371.9597947915503	1635.07738	-53.460062951858575	285.1824198194806	1601.58722	-42.16740055277792	340.2653927610987	1451.43841	-40.890548319602225	428.55385853256684	1655.42395	-58.513376758090814	702.4683159755907	1629.28529	-79.23339397707129	604.7726872345742	1610.49812	-2.9900813202443297	596.3454273059815	1633.14668	-145.81967895533268	596.9356250124773	1677.84974	-65.30711136949397	440.2108938830399	1585.47332	126.3954457492634	404.93712479774194	1612.65159	-240.3806940205483	465.8451714679933	1303.5916	103.38175455680017	435.59303144048215	1304.03714	46.47285812213752	409.0122487681083	1313.61637	-257.83507578436473	373.15864983633196	1306.33913	-204.79424080033073	560.810835964931	1066.33867	46.56987867356387	608.4803250111728	1091.95753	45.53870167462521	426.2687148150596	1294.97772	78.21714826322852	463.38210194973595	1056.98222	-239.13492389500414	512.503192054427	1074.507	-253.81896767949783	366.7036267425439	1305.74507	-225.84159283785945	743.648427705285	1025.64552	152.55994024573496	667.4578109764761	1006.70984	98.8820594800394	617.1858367869534	1048.36834	53.480172973083945	606.8235764684123	995.0514	-389.1173056739482	550.2093212648028	984.87812	-313.3358192286259	516.4262286265981	1033.07128	-259.8712863424491	30.36013607976868	1232.45285	175.38544178513578	364.293871956394	939.72952	168.48148488553466	370.03599212052814	938.24437	82.79312101808854	396.4338769444297	977.15533	124.10050329073958	-7.68659116183575	1221.53699	-176.78581357069055	235.5027582694672	851.80856	-214.38752264532886	256.89744380581294	849.50657	-131.2954650062387	284.0041182801269	879.87792	-178.83966241998075	386.5578145848244	884.1106	132.88950507629454	63.81696988600089	629.40714	182.7831657723535	68.00124896017289	619.82792	118.06042182284033	301.3618716427401	815.05106	-182.02293314927635	201.70558054830997	417.32753	-240.50271367984962	210.3978480174934	411.01564	-175.80554256945348	-18.93159682814664	589.60509	143.58278757475986	107.91153695015527	478.29299	128.24085527948486	98.93088103987414	484.7534	206.91472760138552	120.26270260715809	466.63455	169.66990882885614	14.2289172615722	566.6595	149.2660123662632	187.56293812176528	404.55523	182.45916155620506	152.60986198208727	339.28283	-204.62495468904925	319.4849500270918	310.91644	-195.73972570052698	306.173299972955	316.63427	-273.822071474185	334.8784987454844	310.17386	-237.6991941895697	192.71612920637406	337.64916	-211.5661672234484	424.4233052848381	293.91145	-254.08220866965618	
